Coordinates
version=1
nRows=38
nColumns=38
inDegrees=no

Units are S.I. units (second, meters, Newtons, ...)
If the header above contains a line with 'inDegrees', this indicates whether rotational values are in degrees (yes) or radians (no).

endheader
time	pelvis_tilt	pelvis_list	pelvis_rotation	pelvis_tx	pelvis_ty	pelvis_tz	hip_flexion_r	hip_adduction_r	hip_rotation_r	knee_angle_r	ankle_angle_r	subtalar_angle_r	mtp_angle_r	hip_flexion_l	hip_adduction_l	hip_rotation_l	knee_angle_l	ankle_angle_l	subtalar_angle_l	mtp_angle_l	lumbar_extension	lumbar_bending	lumbar_rotation	arm_flex_r	arm_add_r	arm_rot_r	elbow_flex_r	pro_sup_r	wrist_flex_r	wrist_dev_r	arm_flex_l	arm_add_l	arm_rot_l	elbow_flex_l	pro_sup_l	wrist_flex_l	wrist_dev_l
20	0.0311197	1.38562	1.51824	0.614567	0.332424	1.0238	0.292382	-0.0589165	-0.0238825	0.263421	-0.384849	0	0	0.111154	-0.0387715	-0.264048	0	-0.539445	0	0	-0.348996	0.0482441	0.00189365	0.332551	-0.631243	1.23528	0.786581	0	0	0	0.26402	-0.100816	1.19988	0	0.357777	0	0
20.01	0.0466181	1.4387	1.50407	0.614801	0.332558	1.02728	0.226822	-0.0603104	-0.0386231	0.248726	-0.383116	0	0	0.047738	-0.037783	-0.276877	0	-0.539965	0	0	-0.436072	0.00483534	-0.0521857	0.370659	-0.567558	1.23306	0.74482	7.98383e-10	0	0	0.20306	-0.536092	1.17913	0.742154	0.468758	0	0
20.02	0.0604886	1.44799	1.49173	0.614724	0.334625	1.02802	0.206969	-0.0593464	-0.046467	0.235089	-0.385421	0	0	0.0303218	-0.0378055	-0.28013	0	-0.54244	0	0	-0.431783	0.00530964	-0.0550208	0.362795	-0.563251	1.24385	0.739906	1.36691e-09	0	0	0.191866	-0.533654	1.17963	0.741811	0.468632	0	0
20.03	0.0759789	1.45677	1.47786	0.614665	0.336564	1.02864	0.188176	-0.0582139	-0.0554606	0.222141	-0.387571	0	0	0.0140984	-0.0379438	-0.284577	0	-0.544376	0	0	-0.427486	0.00569939	-0.0577747	0.354953	-0.558797	1.25324	0.73463	0.00217865	0	0	0.181133	-0.531064	1.17866	0.740862	0.470861	0	0
20.04	0.0913455	1.46469	1.46404	0.614622	0.338361	1.02915	0.170954	-0.0570087	-0.0641023	0.210344	-0.389208	0	0	-0.000887059	-0.0379006	-0.289163	0	-0.546446	0	0	-0.422857	0.00562639	-0.0604719	0.347199	-0.553499	1.26129	0.7281	0.0116627	0	0	0.171013	-0.528584	1.17694	0.739693	0.474145	0	0
20.05	0.104653	1.47298	1.45226	0.614581	0.340077	1.02962	0.153187	-0.0563267	-0.0732005	0.197959	-0.390891	0	0	-0.0160793	-0.0373235	-0.293934	0	-0.54818	0	0	-0.419062	0.00496061	-0.0633029	0.340098	-0.548043	1.26937	0.721544	0.0221628	0	0	0.16176	-0.526342	1.17519	0.738567	0.477045	0	0
20.06	0.142031	1.49315	1.4204	0.613937	0.342477	1.03094	0.118182	-0.0566773	-0.0969547	0.178927	-0.395529	0	0	-0.0455279	-0.0362245	-0.301092	0	-0.551721	0	0	-0.427752	0.00649889	-0.0694164	0.334189	-0.54492	1.2773	0.718381	0.033272	0	0	0.154111	-0.524773	1.17423	0.739473	0.479039	0	0
20.07	0.161559	1.50317	1.40276	0.613904	0.344088	1.03139	0.0994119	-0.0567049	-0.106747	0.168483	-0.396207	0	0	-0.0621737	-0.0349136	-0.305612	0	-0.553013	0	0	-0.426383	0.00500523	-0.0716428	0.327674	-0.540198	1.28532	0.713105	0.043845	0	0	0.148962	-0.523447	1.17868	0.738969	0.474905	0	0
20.08	0.0838515	1.42846	1.47786	0.613485	0.348483	1.02664	0.176234	-0.0548814	-0.0919465	0.170204	-0.398643	0	0	0.0134263	-0.0344892	-0.29808	0	-0.552703	0	0	-0.278049	0.0448549	-0.0421786	0.26656	-0.561755	1.28514	0.702733	0.0404231	0	0	0.16079	-0.131336	1.5708	0.0124748	6.67061e-09	0	0
20.09	0.0934872	1.43708	1.46884	0.613402	0.349947	1.02689	0.159798	-0.0541459	-0.0980634	0.160022	-0.399595	0	0	-0.00109082	-0.0338092	-0.303826	0	-0.552777	0	0	-0.276113	0.0442216	-0.0444089	0.26341	-0.557052	1.29806	0.697724	0.0498389	0	0	0.15508	-0.130762	1.5708	0.0136172	6.97389e-09	0	0
20.1	0.105891	1.44632	1.45639	0.613339	0.351249	1.0272	0.143291	-0.0531572	-0.102309	0.150421	-0.40061	0	0	-0.0161136	-0.0332881	-0.309828	0	-0.552527	0	0	-0.275546	0.0439582	-0.0455659	0.260971	-0.553212	1.3107	0.694017	0.0600219	0	0	0.150577	-0.130092	1.5708	0.0148219	7.15929e-09	0	0
20.11	0.120837	1.45553	1.44215	0.613251	0.352541	1.0275	0.126982	-0.0521776	-0.107191	0.141363	-0.401621	0	0	-0.0307998	-0.0330754	-0.314453	0	-0.551912	0	0	-0.275403	0.0440149	-0.0472254	0.259177	-0.54927	1.32415	0.690402	0.0709064	0	0	0.146669	-0.129729	1.5708	0.0163164	7.38703e-09	0	0
20.12	0.137852	1.46458	1.42694	0.613125	0.353874	1.02779	0.110947	-0.0513752	-0.113763	0.132855	-0.402464	0	0	-0.0450643	-0.0330744	-0.317301	0	-0.551183	0	0	-0.275567	0.0443758	-0.0496509	0.257242	-0.544963	1.33658	0.686591	0.0844777	0	0	0.143343	-0.129703	1.5708	0.0181358	7.70086e-09	0	0
20.13	0.155721	1.4738	1.40965	0.613059	0.354939	1.02811	0.096401	-0.050724	-0.117034	0.127025	-0.402226	0	0	-0.0591455	-0.0329155	-0.320528	0	-0.550639	0	0	-0.276882	0.0446211	-0.0504369	0.255743	-0.541117	1.34726	0.683384	0.101103	0	0	0.14148	-0.129515	1.5708	0.0200406	7.99177e-09	0	0
20.14	0.180398	1.48434	1.38421	0.613045	0.35573	1.02853	0.0818304	-0.0499528	-0.116497	0.123333	-0.401284	0	0	-0.0744464	-0.03274	-0.323888	0	-0.550026	0	0	-0.2808	0.0451337	-0.0490848	0.254555	-0.538917	1.35527	0.682585	0.119444	0	0	0.141384	-0.12891	1.5708	0.0217865	8.23191e-09	0	0
20.15	0.226387	1.49709	1.33633	0.613179	0.356545	1.02912	0.06448	-0.0482613	-0.115018	0.118687	-0.400642	0	0	-0.0918435	-0.0332328	-0.329101	0	-0.548196	0	0	-0.287932	0.0462754	-0.0454767	0.253118	-0.538167	1.36096	0.683975	0.138028	0	0	0.142528	-0.127943	1.5708	0.0231985	8.45756e-09	0	0
20.16	0.294261	1.51015	1.26669	0.613314	0.357331	1.02973	0.046753	-0.0465912	-0.113438	0.114298	-0.39985	0	0	-0.10946	-0.033817	-0.333697	0	-0.546138	0	0	-0.29603	0.0477042	-0.0408983	0.250798	-0.538215	1.36383	0.686429	0.157988	0	0	0.144608	-0.126747	1.5708	0.0243623	8.80167e-09	0	0
20.17	0.439196	1.52638	1.12048	0.613371	0.358011	1.03067	0.0244834	-0.0447766	-0.112764	0.109437	-0.398162	0	0	-0.13144	-0.0345207	-0.338466	0	-0.544272	0	0	-0.309735	0.049854	-0.0336126	0.245252	-0.541142	1.3565	0.692598	0.189452	0	0	0.149697	-0.12516	1.5708	0.025798	1.40685e-08	0	0
20.18	0.67294	1.54441	0.888375	0.613594	0.356857	1.03135	0.00542498	-0.0475515	-0.110771	0.112664	-0.397178	0	0	-0.115281	-0.0461605	-0.341924	0	-0.541914	0	0	-0.31526	0.0463806	-0.0311668	0.241632	-0.540437	1.35926	0.695115	0.197226	0	0	0.158874	-0.121703	1.5708	0.0285018	0.0201572	0	0
20.19	2.85008	1.5022	-1.28606	0.613446	0.355696	1.03621	-0.0961681	-0.0432487	-0.137544	0.0936744	-0.400888	0	0	-0.249353	-0.0349701	-0.349098	0	-0.544759	0	0	-0.476822	0.0110014	-0.0687266	0.306313	-0.513796	1.37247	0.705297	0.242998	0	0	0.0991317	-0.498571	1.06829	0.739165	0.579416	0	0
20.2	2.87616	1.49368	-1.31267	0.61348	0.356042	1.03662	-0.106046	-0.0427298	-0.135661	0.0937524	-0.398999	0	0	-0.25955	-0.0353747	-0.348678	0	-0.543577	0	0	-0.48256	0.0117431	-0.0683186	0.305877	-0.51188	1.37244	0.706028	0.261378	0	0	0.0916803	-0.495708	1.03695	0.740515	0.608417	0	0
20.21	2.89814	1.48665	-1.33486	0.613473	0.35626	1.03703	-0.113863	-0.0428286	-0.134592	0.0946896	-0.396092	0	0	-0.2681	-0.0354216	-0.347197	0	-0.542796	0	0	-0.488311	0.0122862	-0.0688726	0.304949	-0.509899	1.36817	0.70702	0.282374	0	0	0.0813957	-0.491752	0.9943	0.742062	0.651076	0	0
20.22	2.91167	1.48085	-1.34874	0.613495	0.356449	1.03738	-0.119602	-0.0428927	-0.134554	0.0967614	-0.391129	0	0	-0.274727	-0.0356953	-0.346386	0	-0.541098	0	0	-0.492602	0.01222	-0.0687004	0.301566	-0.506257	1.35816	0.705119	0.307297	0	0	0.0684796	-0.485981	0.940704	0.742917	0.709496	0	0
20.23	2.91266	1.47944	-1.35057	0.613615	0.356654	1.03744	-0.119357	-0.0431406	-0.133357	0.101135	-0.383708	0	0	-0.27585	-0.0361485	-0.34569	0	-0.537379	0	0	-0.492039	0.01183	-0.0686823	0.296874	-0.501276	1.34593	0.70092	0.336363	0	0	0.0528941	-0.477694	0.878167	0.741882	0.782099	0	0
20.24	2.9258	1.47322	-1.36352	0.613766	0.356774	1.03781	-0.125977	-0.043113	-0.136642	0.101791	-0.387289	0	0	-0.282524	-0.0366647	-0.345346	0	-0.539107	0	0	-0.491564	0.0122645	-0.0624766	0.291631	-0.501584	1.3455	0.702264	0.320787	0	0	0.0632077	-0.480018	0.899665	0.744181	0.746534	0	0
20.25	2.93541	1.46811	-1.37324	0.613963	0.356891	1.03812	-0.130957	-0.0431946	-0.141114	0.103204	-0.389759	0	0	-0.288112	-0.0370448	-0.345824	0	-0.540097	0	0	-0.490126	0.0126019	-0.0565656	0.285557	-0.501762	1.34172	0.703522	0.307957	0	0	0.070765	-0.481017	0.912056	0.746156	0.721499	0	0
20.26	2.94367	1.46473	-1.38156	0.614142	0.356907	1.03832	-0.134157	-0.0435138	-0.145437	0.104081	-0.391485	0	0	-0.291586	-0.0370624	-0.347085	0	-0.540703	0	0	-0.487428	0.0128741	-0.051327	0.279276	-0.502091	1.33563	0.705053	0.297213	0	0	0.0763243	-0.481026	0.917187	0.747808	0.705213	0	0
20.27	2.94937	1.46245	-1.38683	0.614174	0.356933	1.03847	-0.136044	-0.0439175	-0.150488	0.105393	-0.394852	0	0	-0.293541	-0.037058	-0.349737	0	-0.541593	0	0	-0.484881	0.0138174	-0.0475199	0.272204	-0.503344	1.32314	0.708478	0.276703	0	0	0.0760979	-0.478056	0.901942	0.748909	0.70985	0	0
20.28	2.95049	1.46177	-1.38806	0.614289	0.357067	1.03849	-0.136227	-0.0440282	-0.152863	0.106738	-0.394472	0	0	-0.29405	-0.037093	-0.351367	0	-0.54128	0	0	-0.480676	0.0147952	-0.0452416	0.266133	-0.503139	1.31241	0.709655	0.278196	0	0	0.073513	-0.475205	0.882824	0.749917	0.723152	0	0
20.29	2.95052	1.46083	-1.38851	0.614441	0.3573	1.03852	-0.136977	-0.0438513	-0.154783	0.107525	-0.393956	0	0	-0.294935	-0.0372447	-0.353149	0	-0.540797	0	0	-0.476593	0.0159374	-0.0432978	0.26018	-0.50303	1.30138	0.710987	0.281198	0	0	0.0708	-0.472623	0.864741	0.751144	0.736055	0	0
20.3	2.95176	1.4603	-1.39014	0.614548	0.357553	1.03852	-0.137464	-0.043892	-0.155741	0.108062	-0.393351	0	0	-0.295708	-0.0371355	-0.354095	0	-0.540428	0	0	-0.472353	0.0170359	-0.0419666	0.254409	-0.50288	1.2898	0.712249	0.285659	0	0	0.0685072	-0.470237	0.848254	0.752344	0.748903	0	0
20.31	2.95272	1.46025	-1.3914	0.614609	0.357816	1.03847	-0.137435	-0.0439749	-0.155798	0.108775	-0.392665	0	0	-0.295927	-0.0370388	-0.354448	0	-0.539917	0	0	-0.468008	0.0182875	-0.0410476	0.248702	-0.503046	1.27752	0.713924	0.291704	0	0	0.0667972	-0.467881	0.833193	0.753242	0.760991	0	0
20.32	2.95274	1.46134	-1.3916	0.61465	0.358125	1.03837	-0.136345	-0.044121	-0.154942	0.10933	-0.392048	0	0	-0.294906	-0.0369085	-0.353413	0	-0.539476	0	0	-0.463798	0.0192563	-0.0393316	0.242628	-0.503399	1.2644	0.715487	0.298956	0	0	0.0664389	-0.465692	0.819632	0.754342	0.771742	0	0
20.33	2.95436	1.46326	-1.39328	0.614656	0.358436	1.03828	-0.134786	-0.0444852	-0.152792	0.109062	-0.391586	0	0	-0.29332	-0.0364139	-0.350425	0	-0.539527	0	0	-0.456974	0.019475	-0.0403691	0.238345	-0.500677	1.25534	0.712629	0.307181	0	0	0.0645104	-0.464049	0.806832	0.754499	0.779406	0	0
20.34	2.96019	1.46585	-1.39881	0.614567	0.358697	1.0382	-0.132521	-0.0455726	-0.150084	0.10902	-0.391057	0	0	-0.291662	-0.0353299	-0.345272	0	-0.539772	0	0	-0.450623	0.0193599	-0.0414262	0.232657	-0.497752	1.24097	0.709421	0.320698	0	0	0.0636596	-0.462202	0.795066	0.754106	0.78726	0	0
20.35	2.96639	1.46493	-1.40487	0.614543	0.359003	1.03821	-0.134272	-0.0459675	-0.148501	0.108465	-0.39042	0	0	-0.293351	-0.0349859	-0.342681	0	-0.539196	0	0	-0.445182	0.0193761	-0.0382442	0.22296	-0.495876	1.2222	0.706678	0.335366	0	0	0.066806	-0.460206	0.791229	0.752125	0.792039	0	0
20.36	2.96902	1.46395	-1.40779	0.61462	0.359415	1.03821	-0.13606	-0.0459021	-0.146514	0.107928	-0.38973	0	0	-0.294687	-0.035011	-0.341879	0	-0.538543	0	0	-0.439907	0.0198276	-0.0342471	0.21244	-0.494502	1.20129	0.704723	0.352545	0	0	0.0704412	-0.458073	0.788437	0.749669	0.796429	0	0
20.37	2.96981	1.46402	-1.40908	0.614742	0.359821	1.03814	-0.136459	-0.0458394	-0.144551	0.107645	-0.388853	0	0	-0.294809	-0.0350536	-0.341187	0	-0.537883	0	0	-0.433931	0.0203205	-0.0298255	0.200979	-0.493023	1.17757	0.702761	0.37263	0	0	0.0744846	-0.455418	0.786363	0.745823	0.801608	0	0
